<svg width="24" height="24" viewBox="0 0 24 24" fill="none" xmlns="http://www.w3.org/2000/svg">
<path d="M20.2499 10.5V6" stroke="white" stroke-width="1.5" stroke-linecap="round" stroke-linejoin="round"/>
<path d="M22.4999 8.25H17.9999" stroke="white" stroke-width="1.5" stroke-linecap="round" stroke-linejoin="round"/>
<path d="M15.7499 2.25V5.25" stroke="white" stroke-width="1.5" stroke-linecap="round" stroke-linejoin="round"/>
<path d="M17.2499 3.75H14.2499" stroke="white" stroke-width="1.5" stroke-linecap="round" stroke-linejoin="round"/>
<path d="M20.3155 14.3064C18.843 14.7194 17.2871 14.7329 15.8077 14.3457C14.3282 13.9584 12.9785 13.1844 11.8971 12.103C10.8157 11.0216 10.0417 9.67187 9.65441 8.19241C9.26717 6.71295 9.28071 5.15707 9.69362 3.68457C8.24187 4.08864 6.92132 4.86603 5.8635 5.93929C4.80569 7.01255 4.04753 8.34423 3.66455 9.80169C3.28156 11.2591 3.28712 12.7915 3.68066 14.2462C4.0742 15.7008 4.84199 17.0269 5.90755 18.0925C6.97312 19.1581 8.29927 19.9259 9.75391 20.3194C11.2086 20.713 12.7409 20.7185 14.1984 20.3355C15.6558 19.9525 16.9875 19.1944 18.0608 18.1366C19.134 17.0787 19.9114 15.7582 20.3155 14.3064Z" stroke="white" stroke-width="1.5" stroke-linecap="round" stroke-linejoin="round"/>
</svg>
